<svg id="Layer_1" data-name="Layer 1" xmlns="http://www.w3.org/2000/svg" viewBox="0 0 235.01 45.79"><title>room2</title><path d="M225.19,118.65a.58.58,0,0,1-.65-.65c0-1.25.08-3.14.22-5.69.09-1.25.17-2.3.22-3.17s.07-1.53.07-2a16.14,16.14,0,0,0-.43-4,8.23,8.23,0,0,0-1.16-2.63,6.09,6.09,0,0,0-3-1.76,17.66,17.66,0,0,0-4.72-.54H186.53V118a.58.58,0,0,1-.65.65h-4.61a.58.58,0,0,1-.65-.65V73.79c0-.48.22-.72.65-.72h32q15.33,0,15.34,12.17a15.58,15.58,0,0,1-.8,5.29,6.27,6.27,0,0,1-2.45,3.28,8.44,8.44,0,0,1,4.11,4.25,11,11,0,0,1,.9,3.16,27.34,27.34,0,0,1,.25,3.82v13c0,.43-.17.65-.5.65ZM214.46,79.33H186.53V91.94h27.64q8.58,0,8.57-6.41Q222.74,79.34,214.46,79.33Z" transform="translate(-180.62 -72.85)" style="fill:#f1f2f2"/><path d="M287.4,105.61a20,20,0,0,1-1.44,5.62,11.78,11.78,0,0,1-2.88,3.71,11.38,11.38,0,0,1-4.25,2.27v.07a29.54,29.54,0,0,1-5.4,1,76.37,76.37,0,0,1-8.06.36h-7q-10.94,0-15.19-2a11.41,11.41,0,0,1-6.41-7.7,31.34,31.34,0,0,1-.83-5.83c-.16-2.5-.25-5.6-.25-9.29a67.54,67.54,0,0,1,.4-7.92,18.22,18.22,0,0,1,1.4-5.55,12.1,12.1,0,0,1,2.85-3.71,12.5,12.5,0,0,1,4.35-2.41h.07q4-1.36,13.61-1.37h7q10.5,0,15.12,2.09a10.64,10.64,0,0,1,3.92,3,12.63,12.63,0,0,1,2.41,4.82,45.25,45.25,0,0,1,.72,5.76c.19,2.5.29,5.59.29,9.29A62.24,62.24,0,0,1,287.4,105.61Zm-5.33-11.8a60.59,60.59,0,0,0-.29-6.34,11.91,11.91,0,0,0-1.08-4.18,5.69,5.69,0,0,0-4.53-3.74c-1.88-.48-5.5-.72-10.88-.72h-6.91q-8.06,0-10.94.72a6.2,6.2,0,0,0-4.68,3.74c-.91,2.12-1.37,5.62-1.37,10.52v4c0,4.89.46,8.4,1.37,10.51a6.43,6.43,0,0,0,4.75,3.67c1.87.48,5.5.72,10.87.72h6.91q8,0,10.8-.72a5.87,5.87,0,0,0,4.61-3.67,11.85,11.85,0,0,0,1.08-4.18,60.38,60.38,0,0,0,.29-6.33Z" transform="translate(-180.62 -72.85)" style="fill:#f1f2f2"/><path d="M344.71,105.61a20,20,0,0,1-1.44,5.62,11.78,11.78,0,0,1-2.88,3.71,11.38,11.38,0,0,1-4.25,2.27v.07a29.54,29.54,0,0,1-5.4,1,76.24,76.24,0,0,1-8.06.36h-7q-10.94,0-15.19-2a11.41,11.41,0,0,1-6.41-7.7,30.64,30.64,0,0,1-.82-5.83q-.25-3.75-.26-9.29a69.79,69.79,0,0,1,.4-7.92,18.22,18.22,0,0,1,1.4-5.55,12.1,12.1,0,0,1,2.85-3.71A12.59,12.59,0,0,1,302,74.22h.08q4-1.36,13.6-1.37h7c7,0,12,.7,15.12,2.09a10.64,10.64,0,0,1,3.92,3,12.49,12.49,0,0,1,2.41,4.82,45.25,45.25,0,0,1,.72,5.76c.19,2.5.29,5.59.29,9.29A62.24,62.24,0,0,1,344.71,105.61Zm-5.33-11.8a58,58,0,0,0-.29-6.34A11.91,11.91,0,0,0,338,83.29a5.69,5.69,0,0,0-4.53-3.74c-1.87-.48-5.5-.72-10.87-.72h-6.92q-8.06,0-10.94.72a6.24,6.24,0,0,0-4.68,3.74c-.91,2.12-1.37,5.62-1.37,10.52v4c0,4.89.46,8.4,1.37,10.51a6.43,6.43,0,0,0,4.75,3.67c1.87.48,5.5.72,10.87.72h6.92q8,0,10.8-.72a5.87,5.87,0,0,0,4.6-3.67,11.85,11.85,0,0,0,1.08-4.18,57.77,57.77,0,0,0,.29-6.33Z" transform="translate(-180.62 -72.85)" style="fill:#f1f2f2"/><path d="M410.52,118.65a.57.57,0,0,1-.65-.65V77.9H408.5L385,118.5a.7.7,0,0,1-.5.15h-3.1a.77.77,0,0,1-.29-.07L357.88,77.9h-1.29V118a.58.58,0,0,1-.65.65h-4.68a.58.58,0,0,1-.65-.65V73.79c0-.48.22-.72.65-.72h10.37a1,1,0,0,1,.36.07l21.1,37.23,21.74-37.16a.71.71,0,0,1,.5-.14h9.8c.33,0,.5.24.5.72V118c0,.43-.17.65-.5.65Z" transform="translate(-180.62 -72.85)" style="fill:#f1f2f2"/></svg>